{"title":"The Pianist-720p MP4 AAC x264 BRRip 2002-CC Repack","uid":7341463,"size":3272407371,"categoryP":"video","categoryS":"hd___movies","magnet":"?xt=urn:btih:4284d1b89bd661ffb7ed8a4fca4bbb2e36bcbd95&amp;dn=The+Pianist-720p+MP4+AAC+x264+BRRip+2002-CC+Repack&amp;tr=udp%3A%2F%2Ftracker.openbittorrent.com%3A80&amp;tr=udp%3A%2F%2Fopen.demonii.com%3A1337&amp;tr=udp%3A%2F%2Ftracker.coppersurfer.tk%3A6969&amp;tr=udp%3A%2F%2Fexodus.desync.com%3A6969","seeders":1,"leechers":0,"uploader":"Caveman44","files":-1,"time":1339252771,"description":"Source: The.Pianist.2002.720p.BluRay.DTS.x264-FoRM\n\nSubs: Arabic, Croatian, Danish, Dutch, English, Finnish, French, German, Italian, Norwegian,Swedish and Turkish.\n\nSample and Screens included.\n\nFirst version has some issue`s, so i made this repack!\n\nGeneral\nComplete name                    : The Pianist-720p MP4 AAC x264 BRRip 2002-CC.mp4\nFormat                           : MPEG-4\nFormat profile                   : Base Media\nCodec ID                         : isom\nFile size                        : 3.01 GiB\nDuration                         : 2h 28mn\nOverall bit rate                 : 2 898 Kbps\nEncoded date                     : UTC 2012-06-04 13:23:10\n\nVideo\nID                               : 1\nFormat                           : AVC\nFormat/Info                      : Advanced Video Codec\nFormat profile                   : &lt;a class=&quot;__cf_email__&quot; href=&quot;/cdn-cgi/l/email-protection&quot; data-cfemail=&quot;f8b0919f90b8b4cbd6c9&quot;&gt;[email&amp;#160;protected]&lt;/a&gt;&lt;script cf-hash='f9e31' type=&quot;text/javascript&quot;&gt;\n/* &lt;![CDATA[ */!function(){try{var t=&quot;currentScript&quot;in document?document.currentScript:function(){for(var t=document.getElementsByTagName(&quot;script&quot;),e=t.length;e--;)if(t[e].getAttribute(&quot;cf-hash&quot;))return t[e]}();if(t&amp;&amp;t.previousSibling){var e,r,n,i,c=t.previousSibling,a=c.getAttribute(&quot;data-cfemail&quot;);if(a){for(e=&quot;&quot;,r=parseInt(a.substr(0,2),16),n=2;a.length-n;n+=2)i=parseInt(a.substr(n,2),16)^r,e+=String.fromCharCode(i);e=document.createTextNode(e),c.parentNode.replaceChild(e,c)}}}catch(u){}}();/* ]]&gt; */&lt;/script&gt;\nFormat settings, CABAC           : Yes\nFormat settings, ReFrames        : 5 frames\nCodec ID                         : avc1\nCodec ID/Info                    : Advanced Video Coding\nDuration                         : 2h 28mn\nBit rate mode                    : Variable\nBit rate                         : 2 535 Kbps\nNominal bit rate                 : 2 516 Kbps\nMaximum bit rate                 : 11.8 Mbps\nWidth                            : 1 280 pixels\nHeight                           : 688 pixels\nDisplay aspect ratio             : 1.851\nFrame rate mode                  : Variable\nFrame rate                       : 24.000 fps\nMinimum frame rate               : 19.048 fps\nMaximum frame rate               : 24.390 fps\nResolution                       : 24 bits\nColorimetry                      : 4:2:0\nScan type                        : Progressive\nBits/(Pixel*Frame)               : 0.120\nStream size                      : 2.63 GiB (87%)\nWriting library                  : x264 core 112\n\nAudio\nID                               : 2\nFormat                           : AAC\nFormat/Info                      : Advanced Audio Codec\nFormat version                   : Version 4\nFormat profile                   : LC\nFormat settings, SBR             : No\nCodec ID                         : 40\nDuration                         : 2h 28mn\nBit rate mode                    : Variable\nBit rate                         : 360 Kbps\nMaximum bit rate                 : 832 Kbps\nChannel(s)                       : 6 channels\nChannel positions                : Front: L C R, Rear: L R, LFE\nSampling rate                    : 48.0 KHz\nResolution                       : 16 bits\nStream size                      : 383 MiB (12%)\nLanguage                         : English\n\nEnjoy...\n\nRequested by DreamExtractor and cmptrluvr's.","torrent":{"xt":"urn:btih:4284d1b89bd661ffb7ed8a4fca4bbb2e36bcbd95","amp;dn":"The+Pianist-720p+MP4+AAC+x264+BRRip+2002-CC+Repack","amp;tr":["udp%3A%2F%2Ftracker.openbittorrent.com%3A80","udp%3A%2F%2Fopen.demonii.com%3A1337","udp%3A%2F%2Ftracker.coppersurfer.tk%3A6969","udp%3A%2F%2Fexodus.desync.com%3A6969"],"infoHash":"4284d1b89bd661ffb7ed8a4fca4bbb2e36bcbd95","infoHashBuffer":{"type":"Buffer","data":[66,132,209,184,155,214,97,255,183,237,138,79,202,75,187,46,54,188,189,149]},"announce":[],"urlList":[]}}